<svg width="70" height="70" viewBox="0 0 70 70" fill="none" xmlns="http://www.w3.org/2000/svg">
<path d="M27.6674 12.5379H26.7231V11.5936C26.7231 11.027 26.2638 10.5676 25.6971 10.5676C25.1304 10.5676 24.6712 11.027 24.6712 11.5936V12.5379H23.7269C23.1602 12.5379 22.7009 12.9973 22.7009 13.5638C22.7009 14.1304 23.1602 14.5898 23.7269 14.5898H24.6712V15.5342C24.6712 16.1008 25.1304 16.5601 25.6971 16.5601C26.2638 16.5601 26.7231 16.1008 26.7231 15.5342V14.5898H27.6674C28.2341 14.5898 28.6933 14.1304 28.6933 13.5638C28.6933 12.9973 28.2341 12.5379 27.6674 12.5379Z" fill="white"/>
<path d="M46.2719 12.5379H45.3276V11.5936C45.3276 11.027 44.8683 10.5676 44.3016 10.5676C43.7349 10.5676 43.2757 11.027 43.2757 11.5936V12.5379H42.3314C41.7647 12.5379 41.3054 12.9973 41.3054 13.5638C41.3054 14.1304 41.7647 14.5898 42.3314 14.5898H43.2757V15.5342C43.2757 16.1008 43.7349 16.5601 44.3016 16.5601C44.8683 16.5601 45.3276 16.1008 45.3276 15.5342V14.5898H46.2719C46.8386 14.5898 47.2978 14.1304 47.2978 13.5638C47.2978 12.9973 46.8386 12.5379 46.2719 12.5379Z" fill="white"/>
<path d="M27.6674 26.6295H26.7231V25.6851C26.7231 25.1186 26.2638 24.6592 25.6971 24.6592C25.1304 24.6592 24.6712 25.1186 24.6712 25.6851V26.6295H23.7269C23.1602 26.6295 22.7009 27.0888 22.7009 27.6554C22.7009 28.222 23.1602 28.6814 23.7269 28.6814H24.6712V29.6257C24.6712 30.1922 25.1304 30.6516 25.6971 30.6516C26.2638 30.6516 26.7231 30.1922 26.7231 29.6257V28.6814H27.6674C28.2341 28.6814 28.6933 28.222 28.6933 27.6554C28.6933 27.0888 28.2341 26.6295 27.6674 26.6295Z" fill="white"/>
<path d="M46.2719 26.6295H45.3276V25.6851C45.3276 25.1186 44.8683 24.6592 44.3016 24.6592C43.7349 24.6592 43.2757 25.1186 43.2757 25.6851V26.6295H42.3314C41.7647 26.6295 41.3054 27.0888 41.3054 27.6554C41.3054 28.222 41.7647 28.6814 42.3314 28.6814H43.2757V29.6257C43.2757 30.1922 43.7349 30.6516 44.3016 30.6516C44.8683 30.6516 45.3276 30.1922 45.3276 29.6257V28.6814H46.2719C46.8386 28.6814 47.2978 28.222 47.2978 27.6554C47.2978 27.0888 46.8386 26.6295 46.2719 26.6295Z" fill="white"/>
<path d="M63.4561 29.0517H49.8792C48.7194 29.0517 47.7758 29.9952 47.7758 31.155V33.9326C47.7758 35.0924 48.7193 36.0359 49.8792 36.0359H50.0765V40.68C49.1632 39.9605 48.0126 39.5296 46.7626 39.5296H22.9676C21.7176 39.5296 20.5669 39.9604 19.6538 40.68V36.0259H20.121C21.2808 36.0259 22.2244 35.0824 22.2244 33.9226V31.145C22.2244 29.9852 21.2809 29.0417 20.121 29.0417H6.54409C5.38431 29.0417 4.44067 29.9852 4.44067 31.145V33.9226C4.44067 35.0824 5.38417 36.0259 6.54409 36.0259H7.01126V49.1204C7.01126 51.2152 8.62468 52.9394 10.6741 53.1181V55.1644C10.6741 56.7894 11.9963 58.1115 13.6214 58.1115H15.9724V67.948H14.5035C13.9368 67.948 13.4775 68.4074 13.4775 68.974C13.4775 69.5405 13.9368 69.9999 14.5035 69.9999H24.7547C25.3214 69.9999 25.7806 69.5405 25.7806 68.974C25.7806 68.4074 25.3214 67.948 24.7547 67.948H23.2857V58.1115H46.4447V67.948H44.9758C44.4091 67.948 43.9499 68.4074 43.9499 68.974C43.9499 69.5405 44.4091 69.9999 44.9758 69.9999H55.2271C55.7938 69.9999 56.2531 69.5405 56.2531 68.974C56.2531 68.4074 55.7938 67.948 55.2271 67.948H53.7581V58.1115H56.1092C57.7343 58.1115 59.0563 56.7894 59.0563 55.1644V53.1181C61.1058 52.9395 62.7192 51.2152 62.7192 49.1204V36.0359H63.4564C64.6162 36.0359 65.5598 35.0924 65.5598 33.9326V31.155C65.5595 29.9954 64.616 29.0517 63.4561 29.0517ZM22.9676 41.5818H46.7627C48.5901 41.5818 50.0766 43.0683 50.0766 44.8957V51.0825H19.6537V44.8957C19.6537 43.0683 21.1403 41.5818 22.9676 41.5818ZM6.54409 33.974C6.51579 33.974 6.49269 33.9509 6.49269 33.9226V31.145C6.49269 31.1167 6.51579 31.0936 6.54409 31.0936H20.121C20.1493 31.0936 20.1724 31.1167 20.1724 31.145V33.9226C20.1724 33.9509 20.1493 33.974 20.121 33.974H6.54409ZM11.0252 51.0826C9.94334 51.0825 9.06314 50.2023 9.06314 49.1206V36.026H17.6018V51.0826H11.0252ZM21.2337 67.948H18.0244V58.1116H21.2337V67.948ZM51.7059 67.948H48.4966V58.1116H51.7059V67.948ZM57.0042 55.1644C57.0042 55.6581 56.6026 56.0596 56.1091 56.0596H13.6214C13.1277 56.0596 12.726 55.6581 12.726 55.1644V53.1344H57.0042V55.1644ZM60.667 49.1206C60.667 50.2024 59.7868 51.0825 58.705 51.0825H52.1285V36.036H60.667V49.1206V49.1206ZM63.5076 33.9327C63.5076 33.961 63.4845 33.9841 63.4562 33.9841H49.8794C49.8511 33.9841 49.828 33.961 49.828 33.9327V31.1552C49.828 31.1269 49.8511 31.1037 49.8794 31.1037H63.4562C63.4845 31.1037 63.5076 31.1269 63.5076 31.1552V33.9327Z" fill="white"/>
<path d="M57.6955 8.45511C57.6958 3.793 53.9028 0 49.2407 0H20.4864C15.8241 0 12.0312 3.793 12.0312 8.45511V25.269C12.0314 25.8357 12.4906 26.2949 13.0573 26.2949C13.624 26.2949 14.0833 25.8355 14.0833 25.269V8.45511C14.0833 4.92435 16.9557 2.05188 20.4864 2.05188H49.2406C52.7712 2.05188 55.6437 4.92435 55.6437 8.4599L55.7231 25.2737C55.7258 25.8387 56.1845 26.2949 56.7489 26.2949C56.7505 26.2949 56.7522 26.2949 56.7538 26.2949C57.3205 26.2922 57.7777 25.8307 57.775 25.264L57.6955 8.45511Z" fill="white"/>
</svg>
